<svg width="44" height="44" viewBox="0 0 44 44" fill="none" xmlns="http://www.w3.org/2000/svg">
<path d="M22 3.4375C18.3287 3.4375 14.7398 4.52617 11.6872 6.56585C8.63465 8.60552 6.25545 11.5046 4.85049 14.8964C3.44554 18.2883 3.07794 22.0206 3.79418 25.6214C4.51042 29.2221 6.27833 32.5297 8.87434 35.1257C11.4704 37.7217 14.7779 39.4896 18.3786 40.2058C21.9794 40.9221 25.7117 40.5545 29.1036 39.1495C32.4954 37.7446 35.3945 35.3654 37.4342 32.3128C39.4738 29.2602 40.5625 25.6713 40.5625 22C40.557 17.0786 38.5996 12.3603 35.1196 8.88036C31.6397 5.4004 26.9214 3.44296 22 3.4375ZM22 36.4375C19.1445 36.4375 16.3532 35.5908 13.979 34.0043C11.6047 32.4179 9.75424 30.1631 8.6615 27.525C7.56876 24.8869 7.28285 21.984 7.83992 19.1834C8.397 16.3828 9.77203 13.8103 11.7912 11.7911C13.8103 9.77202 16.3828 8.39699 19.1834 7.83991C21.984 7.28284 24.8869 7.56875 27.525 8.66149C30.1631 9.75423 32.4179 11.6047 34.0044 13.979C35.5908 16.3532 36.4375 19.1445 36.4375 22C36.4334 25.8278 34.911 29.4977 32.2043 32.2043C29.4977 34.911 25.8278 36.4334 22 36.4375ZM30.3342 20.5408C30.5265 20.7324 30.6791 20.9601 30.7832 21.2108C30.8873 21.4615 30.9409 21.7303 30.9409 22.0017C30.9409 22.2732 30.8873 22.542 30.7832 22.7927C30.6791 23.0434 30.5265 23.271 30.3342 23.4627L24.8342 28.9627C24.6424 29.1545 24.4146 29.3067 24.1639 29.4105C23.9133 29.5144 23.6446 29.5678 23.3733 29.5678C23.102 29.5678 22.8333 29.5144 22.5826 29.4105C22.332 29.3067 22.1042 29.1545 21.9124 28.9627C21.7205 28.7708 21.5683 28.543 21.4645 28.2924C21.3607 28.0417 21.3072 27.773 21.3072 27.5017C21.3072 27.2304 21.3607 26.9617 21.4645 26.7111C21.5683 26.4604 21.7205 26.2326 21.9124 26.0408L23.8906 24.0625H15.125C14.578 24.0625 14.0534 23.8452 13.6666 23.4584C13.2798 23.0716 13.0625 22.547 13.0625 22C13.0625 21.453 13.2798 20.9284 13.6666 20.5416C14.0534 20.1548 14.578 19.9375 15.125 19.9375H23.8906L21.9106 17.9592C21.7188 17.7674 21.5666 17.5396 21.4628 17.2889C21.3589 17.0383 21.3055 16.7696 21.3055 16.4983C21.3055 16.227 21.3589 15.9583 21.4628 15.7076C21.5666 15.457 21.7188 15.2292 21.9106 15.0373C22.1025 14.8455 22.3302 14.6933 22.5809 14.5895C22.8316 14.4856 23.1002 14.4322 23.3716 14.4322C23.6429 14.4322 23.9116 14.4856 24.1622 14.5895C24.4129 14.6933 24.6407 14.8455 24.8325 15.0373L30.3342 20.5408Z" fill="white"/>
</svg>
