<svg width="25" height="22" viewBox="0 0 25 22" fill="none" xmlns="http://www.w3.org/2000/svg">
<path d="M20.7158 7.98897L13.2158 15.489C13.1113 15.5939 12.9871 15.6771 12.8504 15.7338C12.7136 15.7906 12.567 15.8199 12.4189 15.8199C12.2709 15.8199 12.1243 15.7906 11.9875 15.7338C11.8508 15.6771 11.7266 15.5939 11.6221 15.489L4.12207 7.98897C3.91072 7.77763 3.79199 7.49098 3.79199 7.1921C3.79199 6.89321 3.91072 6.60657 4.12207 6.39522C4.33341 6.18388 4.62006 6.06515 4.91894 6.06515C5.21783 6.06515 5.50447 6.18388 5.71582 6.39522L12.4199 13.0993L19.1239 6.39429C19.3353 6.18294 19.6219 6.06421 19.9208 6.06421C20.2197 6.06421 20.5063 6.18294 20.7177 6.39429C20.929 6.60563 21.0478 6.89227 21.0478 7.19116C21.0478 7.49005 20.929 7.77669 20.7177 7.98804L20.7158 7.98897Z" fill="white"/>
</svg>
