<svg width="82" height="74" viewBox="0 0 82 74" fill="none" xmlns="http://www.w3.org/2000/svg">
<path d="M0.0799999 56.116C1.95733 50.3987 3.74933 44.8307 5.456 39.412C6.18133 37.1933 6.928 34.8253 7.696 32.308C8.464 29.7907 9.232 27.2733 10 24.756C10.768 22.196 11.4933 19.7427 12.176 17.396C12.8587 15.0493 13.4347 12.9587 13.904 11.124C16.2507 11.124 18.4693 10.996 20.56 10.74C21.6267 10.612 22.7147 10.484 23.824 10.356C24.976 10.228 26.1493 10.1213 27.344 10.036L26.96 13.172C26.8747 13.7693 26.7893 14.388 26.704 15.028C26.6187 15.6253 26.5333 16.244 26.448 16.884C26.3627 17.524 26.256 18.1853 26.128 18.868C26 19.508 25.8933 20.1693 25.808 20.852C25.6373 22.1747 25.3813 24.0307 25.04 26.42C24.6987 28.7667 24.2933 31.3267 23.824 34.1H24.656C25.8933 30.8573 26.9173 28.1693 27.728 26.036C28.5387 23.86 29.2 22.0893 29.712 20.724C30.4373 18.7187 31.2267 16.692 32.08 14.644C32.9333 12.596 33.6373 11.0173 34.192 9.908C35.216 9.82266 36.432 9.69467 37.84 9.524C39.2907 9.31067 40.7413 9.076 42.192 8.82C43.6853 8.564 44.9653 8.35066 46.032 8.18C45.4347 11.764 44.88 15.3907 44.368 19.06C43.8987 22.6867 43.472 26.164 43.088 29.492C42.7467 32.7773 42.448 35.7427 42.192 38.388C41.936 41.0333 41.7013 43.6573 41.488 46.26C41.2747 48.82 41.0613 51.3587 40.848 53.876L29.712 55.86C29.712 55.7747 29.776 54.8147 29.904 52.98C30.032 51.1453 30.2453 48.8627 30.544 46.132C30.8427 43.4013 31.1413 40.82 31.44 38.388C31.7387 35.9133 32.0373 33.8867 32.336 32.308H31.76C30.6933 35.5507 29.392 39.092 27.856 42.932C26.3627 46.772 24.8907 51.0173 23.44 55.668C21.9467 55.7107 20.6667 55.7747 19.6 55.86C18.5333 55.9027 17.296 55.9667 15.888 56.052L17.936 32.308H16.976C16.9333 32.7773 16.7413 33.6947 16.4 35.06C16.0587 36.3827 15.6533 37.9187 15.184 39.668C14.7147 41.3747 14.224 43.0813 13.712 44.788C11.792 51.4867 10.768 55.028 10.64 55.412L0.0799999 56.116Z" fill="black"/>
<path d="M77.9688 21.6562L72.625 23.9062C72.2083 22.5521 71.6458 21.3125 70.9375 20.1875C70.25 19.0625 69.4167 18.1042 68.4375 17.3125C67.4792 16.5 66.3854 15.875 65.1562 15.4375C63.9271 14.9792 62.5833 14.75 61.125 14.75C59.5625 14.75 58.125 15.0104 56.8125 15.5312C55.5208 16.0521 54.3542 16.7604 53.3125 17.6562C52.2917 18.5312 51.3958 19.5625 50.625 20.75C49.8542 21.9375 49.2083 23.2083 48.6875 24.5625C48.1875 25.8958 47.8021 27.2812 47.5312 28.7188C47.2812 30.1562 47.1562 31.5625 47.1562 32.9375C47.1562 35.125 47.4062 37.3021 47.9062 39.4688C48.4271 41.6354 49.2396 43.5833 50.3438 45.3125C51.4688 47.0417 52.9167 48.4479 54.6875 49.5312C56.4583 50.5938 58.6042 51.125 61.125 51.125C62.5 51.125 63.5729 50.8229 64.3438 50.2188C65.1146 49.5938 65.5 48.5104 65.5 46.9688V33.1562H77.9062V55.5H74.3125L72.125 51.9688C70.125 53.4896 67.9167 54.6146 65.5 55.3438C63.1042 56.0521 60.6562 56.4062 58.1562 56.4062C55.9479 56.4062 53.8229 56.1354 51.7812 55.5938C49.7604 55.0521 47.875 54.2812 46.125 53.2812C44.375 52.2812 42.7812 51.0729 41.3438 49.6562C39.9271 48.2396 38.7083 46.6667 37.6875 44.9375C36.6875 43.2083 35.9062 41.3333 35.3438 39.3125C34.8021 37.2708 34.5312 35.1458 34.5312 32.9375C34.5312 30.7292 34.8021 28.6146 35.3438 26.5938C35.9062 24.5521 36.6875 22.6667 37.6875 20.9375C38.7083 19.1875 39.9271 17.6042 41.3438 16.1875C42.7812 14.7708 44.375 13.5625 46.125 12.5625C47.875 11.5625 49.7604 10.7917 51.7812 10.25C53.8229 9.70833 55.9479 9.4375 58.1562 9.4375C60.2812 9.4375 62.3542 9.6875 64.375 10.1875C66.4167 10.6875 68.3125 11.4479 70.0625 12.4688C71.8125 13.4688 73.3646 14.7396 74.7188 16.2812C76.0938 17.8021 77.1771 19.5938 77.9688 21.6562Z" fill="black"/>
</svg>
