<svg width="123" height="112" viewBox="0 0 123 112" fill="none" xmlns="http://www.w3.org/2000/svg">
<path d="M0.62 84.424C3.436 75.848 6.124 67.496 8.684 59.368C9.772 56.04 10.892 52.488 12.044 48.712C13.196 44.936 14.348 41.16 15.5 37.384C16.652 33.544 17.74 29.864 18.764 26.344C19.788 22.824 20.652 19.688 21.356 16.936C24.876 16.936 28.204 16.744 31.34 16.36C32.94 16.168 34.572 15.976 36.236 15.784C37.964 15.592 39.724 15.432 41.516 15.304L40.94 20.008C40.812 20.904 40.684 21.832 40.556 22.792C40.428 23.688 40.3 24.616 40.172 25.576C40.044 26.536 39.884 27.528 39.692 28.552C39.5 29.512 39.34 30.504 39.212 31.528C38.956 33.512 38.572 36.296 38.06 39.88C37.548 43.4 36.94 47.24 36.236 51.4H37.484C39.34 46.536 40.876 42.504 42.092 39.304C43.308 36.04 44.3 33.384 45.068 31.336C46.156 28.328 47.34 25.288 48.62 22.216C49.9 19.144 50.956 16.776 51.788 15.112C53.324 14.984 55.148 14.792 57.26 14.536C59.436 14.216 61.612 13.864 63.788 13.48C66.028 13.096 67.948 12.776 69.548 12.52C68.652 17.896 67.82 23.336 67.052 28.84C66.348 34.28 65.708 39.496 65.132 44.488C64.62 49.416 64.172 53.864 63.788 57.832C63.404 61.8 63.052 65.736 62.732 69.64C62.412 73.48 62.092 77.288 61.772 81.064L45.068 84.04C45.068 83.912 45.164 82.472 45.356 79.72C45.548 76.968 45.868 73.544 46.316 69.448C46.764 65.352 47.212 61.48 47.66 57.832C48.108 54.12 48.556 51.08 49.004 48.712H48.14C46.54 53.576 44.588 58.888 42.284 64.648C40.044 70.408 37.836 76.776 35.66 83.752C33.42 83.816 31.5 83.912 29.9 84.04C28.3 84.104 26.444 84.2 24.332 84.328L27.404 48.712H25.964C25.9 49.416 25.612 50.792 25.1 52.84C24.588 54.824 23.98 57.128 23.276 59.752C22.572 62.312 21.836 64.872 21.068 67.432C18.188 77.48 16.652 82.792 16.46 83.368L0.62 84.424Z" fill="white"/>
<path d="M116.453 34.2344L108.438 37.6094C107.812 35.5781 106.969 33.7188 105.906 32.0312C104.875 30.3438 103.625 28.9062 102.156 27.7188C100.719 26.5 99.0781 25.5625 97.2344 24.9062C95.3906 24.2187 93.375 23.875 91.1875 23.875C88.8438 23.875 86.6875 24.2656 84.7188 25.0469C82.7812 25.8281 81.0312 26.8906 79.4688 28.2344C77.9375 29.5469 76.5938 31.0938 75.4375 32.875C74.2812 34.6562 73.3125 36.5625 72.5312 38.5938C71.7812 40.5938 71.2031 42.6719 70.7969 44.8281C70.4219 46.9844 70.2344 49.0938 70.2344 51.1562C70.2344 54.4375 70.6094 57.7031 71.3594 60.9531C72.1406 64.2031 73.3594 67.125 75.0156 69.7188C76.7031 72.3125 78.875 74.4219 81.5312 76.0469C84.1875 77.6406 87.4062 78.4375 91.1875 78.4375C93.25 78.4375 94.8594 77.9844 96.0156 77.0781C97.1719 76.1406 97.75 74.5156 97.75 72.2031V51.4844H116.359V85H110.969L107.688 79.7031C104.688 81.9844 101.375 83.6719 97.75 84.7656C94.1562 85.8281 90.4844 86.3594 86.7344 86.3594C83.4219 86.3594 80.2344 85.9531 77.1719 85.1406C74.1406 84.3281 71.3125 83.1719 68.6875 81.6719C66.0625 80.1719 63.6719 78.3594 61.5156 76.2344C59.3906 74.1094 57.5625 71.75 56.0312 69.1562C54.5312 66.5625 53.3594 63.75 52.5156 60.7188C51.7031 57.6562 51.2969 54.4688 51.2969 51.1562C51.2969 47.8438 51.7031 44.6719 52.5156 41.6406C53.3594 38.5781 54.5312 35.75 56.0312 33.1562C57.5625 30.5312 59.3906 28.1562 61.5156 26.0312C63.6719 23.9063 66.0625 22.0938 68.6875 20.5938C71.3125 19.0938 74.1406 17.9375 77.1719 17.125C80.2344 16.3125 83.4219 15.9062 86.7344 15.9062C89.9219 15.9062 93.0312 16.2812 96.0625 17.0312C99.125 17.7812 101.969 18.9219 104.594 20.4531C107.219 21.9531 109.547 23.8594 111.578 26.1719C113.641 28.4531 115.266 31.1406 116.453 34.2344Z" fill="white"/>
</svg>
