<svg width="33" height="33" viewBox="0 0 33 33" fill="none" xmlns="http://www.w3.org/2000/svg">
<g clip-path="url(#clip0_158_4930)">
<path d="M16.7542 2.92404C21.0927 2.92404 21.6065 2.94307 23.3127 3.01918C24.8984 3.08895 25.7547 3.35535 26.3255 3.57735C27.0803 3.86912 27.6258 4.22432 28.1903 4.78883C28.7612 5.35968 29.11 5.89882 29.4018 6.65362C29.6238 7.22447 29.8902 8.0871 29.96 9.66646C30.0361 11.379 30.0551 11.8928 30.0551 16.2249C30.0551 20.5634 30.0361 21.0772 29.96 22.7834C29.8902 24.3691 29.6238 25.2254 29.4018 25.7963C29.11 26.5511 28.7548 27.0965 28.1903 27.661C27.6195 28.2319 27.0803 28.5808 26.3255 28.8725C25.7547 29.0945 24.8921 29.3609 23.3127 29.4307C21.6001 29.5068 21.0864 29.5258 16.7542 29.5258C12.4157 29.5258 11.902 29.5068 10.1957 29.4307C8.61004 29.3609 7.75376 29.0945 7.18291 28.8725C6.42811 28.5808 5.88263 28.2256 5.31812 27.661C4.74726 27.0902 4.39841 26.5511 4.10664 25.7963C3.88464 25.2254 3.61824 24.3628 3.54847 22.7834C3.47236 21.0709 3.45333 20.5571 3.45333 16.2249C3.45333 11.8864 3.47236 11.3727 3.54847 9.66646C3.61824 8.08075 3.88464 7.22447 4.10664 6.65362C4.39841 5.89882 4.75361 5.35334 5.31812 4.78883C5.88897 4.21798 6.42811 3.86912 7.18291 3.57735C7.75376 3.35535 8.61639 3.08895 10.1957 3.01918C11.902 2.94307 12.4157 2.92404 16.7542 2.92404ZM16.7542 0C12.346 0 11.7941 0.0190285 10.0625 0.0951423C8.3373 0.171256 7.15119 0.45034 6.12366 0.849938C5.05172 1.26856 4.1447 1.82039 3.24401 2.72741C2.33699 3.62809 1.78517 4.53512 1.36654 5.60071C0.966942 6.63459 0.687858 7.81436 0.611744 9.5396C0.53563 11.2775 0.516602 11.8294 0.516602 16.2376C0.516602 20.6459 0.53563 21.1977 0.611744 22.9293C0.687858 24.6545 0.966942 25.8407 1.36654 26.8682C1.78517 27.9401 2.33699 28.8472 3.24401 29.7478C4.1447 30.6485 5.05172 31.2067 6.11731 31.619C7.15119 32.0186 8.33096 32.2976 10.0562 32.3738C11.7878 32.4499 12.3396 32.4689 16.7479 32.4689C21.1561 32.4689 21.708 32.4499 23.4396 32.3738C25.1648 32.2976 26.3509 32.0186 27.3785 31.619C28.444 31.2067 29.3511 30.6485 30.2517 29.7478C31.1524 28.8472 31.7106 27.9401 32.1229 26.8745C32.5225 25.8407 32.8016 24.6609 32.8777 22.9356C32.9538 21.2041 32.9728 20.6522 32.9728 16.244C32.9728 11.8357 32.9538 11.2839 32.8777 9.55229C32.8016 7.82704 32.5225 6.64093 32.1229 5.6134C31.7233 4.53512 31.1715 3.62809 30.2644 2.72741C29.3638 1.82673 28.4567 1.26856 27.3911 0.856281C26.3573 0.456683 25.1775 0.177599 23.4522 0.101485C21.7143 0.0190285 21.1625 0 16.7542 0Z" fill="white"/>
<path d="M16.7539 7.89673C12.149 7.89673 8.41309 11.6327 8.41309 16.2375C8.41309 20.8424 12.149 24.5784 16.7539 24.5784C21.3588 24.5784 25.0947 20.8424 25.0947 16.2375C25.0947 11.6327 21.3588 7.89673 16.7539 7.89673ZM16.7539 21.648C13.7664 21.648 11.3435 19.225 11.3435 16.2375C11.3435 13.2501 13.7664 10.8271 16.7539 10.8271C19.7414 10.8271 22.1643 13.2501 22.1643 16.2375C22.1643 19.225 19.7414 21.648 16.7539 21.648Z" fill="white"/>
<path d="M27.372 7.56688C27.372 8.64516 26.4967 9.51413 25.4248 9.51413C24.3465 9.51413 23.4775 8.63882 23.4775 7.56688C23.4775 6.4886 24.3528 5.61963 25.4248 5.61963C26.4967 5.61963 27.372 6.49494 27.372 7.56688Z" fill="white"/>
</g>
<defs>
<clipPath id="clip0_158_4930">
<rect width="32.4752" height="32.4752" fill="white" transform="translate(0.516602)"/>
</clipPath>
</defs>
</svg>
