<svg width="33" height="33" viewBox="0 0 33 33" fill="none" xmlns="http://www.w3.org/2000/svg">
<g clip-path="url(#clip0_158_4929)">
<path d="M30.0957 0H2.422C1.09635 0 0.0244141 1.04657 0.0244141 2.3405V30.1284C0.0244141 31.4223 1.09635 32.4752 2.422 32.4752H30.0957C31.4214 32.4752 32.4997 31.4223 32.4997 30.1347V2.3405C32.4997 1.04657 31.4214 0 30.0957 0ZM9.65916 27.6737H4.83862V12.1719H9.65916V27.6737ZM7.24889 10.0597C5.70124 10.0597 4.4517 8.81018 4.4517 7.26887C4.4517 5.72757 5.70124 4.47803 7.24889 4.47803C8.79019 4.47803 10.0397 5.72757 10.0397 7.26887C10.0397 8.80384 8.79019 10.0597 7.24889 10.0597ZM27.6981 27.6737H22.8839V20.1385C22.8839 18.3434 22.8522 16.0283 20.3785 16.0283C17.8731 16.0283 17.4925 17.9882 17.4925 20.0116V27.6737H12.6847V12.1719H17.3023V14.2904H17.3657C18.0063 13.0726 19.5793 11.785 21.9198 11.785C26.7975 11.785 27.6981 14.9944 27.6981 19.168V27.6737Z" fill="white"/>
</g>
<defs>
<clipPath id="clip0_158_4929">
<rect width="32.4752" height="32.4752" fill="white" transform="translate(0.0244141)"/>
</clipPath>
</defs>
</svg>
